<svg width="400" height="400" viewBox="0 0 400 400" fill="none" xmlns="http://www.w3.org/2000/svg">
<path d="M241.447 323.781C241.707 324.164 242.003 324.991 241.622 326.698C241.239 328.415 240.239 330.627 238.494 333.201C235.017 338.328 229.055 344.191 221.368 349.405C213.68 354.618 206.027 357.987 199.977 359.321C196.941 359.99 194.515 360.1 192.779 359.821C191.052 359.544 190.393 358.963 190.133 358.579C189.873 358.196 189.577 357.368 189.958 355.662C190.341 353.945 191.341 351.733 193.086 349.159C196.563 344.032 202.525 338.168 210.212 332.955C217.9 327.742 225.552 324.372 231.602 323.039C234.639 322.369 237.064 322.259 238.801 322.539C240.527 322.816 241.187 323.397 241.447 323.781Z" fill="#FFE977" stroke="black" stroke-width="8"/>
<path d="M275.668 316.952C276.057 317.204 276.651 317.852 276.961 319.573C277.274 321.304 277.21 323.731 276.6 326.78C275.383 332.854 272.161 340.571 267.097 348.357C262.033 356.143 256.286 362.217 251.226 365.792C248.687 367.587 246.494 368.628 244.785 369.045C243.086 369.458 242.253 369.178 241.865 368.926C241.476 368.673 240.883 368.025 240.572 366.305C240.259 364.573 240.323 362.147 240.933 359.097C242.15 353.023 245.372 345.307 250.436 337.52C255.5 329.734 261.248 323.66 266.307 320.085C268.847 318.291 271.039 317.249 272.748 316.833C274.447 316.419 275.28 316.699 275.668 316.952Z" fill="#FFE977" stroke="black" stroke-width="8"/>
<path d="M200 50V50C177.909 50 160 67.9086 160 90V200V295C160 315.987 177.013 333 198 333H200H375C354.013 333 337 315.987 337 295V200V113.5C337 78.4299 308.57 50 273.5 50H200Z" fill="#606074"/>
<path d="M377 333H375M375 333H200H198C177.013 333 160 315.987 160 295V200V90C160 67.9086 177.909 50 200 50V50H273.5C308.57 50 337 78.4299 337 113.5V200V295C337 315.987 354.013 333 375 333Z" stroke="black" stroke-width="9"/>
<path d="M198 333H232C235.5 298.001 206.5 193.5 160 192L160 295C160 315.987 177.013 333 198 333Z" fill="white" stroke="black" stroke-width="9"/>
<path d="M160 124L98 154.5L160 154.5L160 124Z" fill="#FFE977"/>
<path d="M98 154.5L160 185L160 154.5L98 154.5Z" fill="#FFE977"/>
<path d="M98 154.5L160 124L160 154.5M98 154.5L160 185L160 154.5M98 154.5L160 154.5" stroke="black" stroke-width="9" stroke-linejoin="round"/>
<path d="M240 248V270C240 289.882 256.118 306 276 306H306V248" stroke="black" stroke-width="9" stroke-linecap="round" stroke-linejoin="round"/>
<circle cx="241" cy="116" r="33.5" fill="white" stroke="black" stroke-width="9"/>
<path d="M251 115.5C251 120.407 249.051 125.112 245.581 128.581C242.112 132.051 237.407 134 232.5 134C227.593 134 222.888 132.051 219.419 128.581C215.949 125.112 214 120.407 214 115.5L232.5 115.5H251Z" fill="black"/>
<rect x="210" y="107" width="61" height="9" fill="black"/>
<rect x="146.202" y="50.9961" width="107.353" height="14.7337" rx="4" transform="rotate(-6.28768 146.202 50.9961)" fill="#EBCFC4" stroke="black" stroke-width="7"/>
<path d="M189.346 50.1674C190.266 37.2832 197.505 25.3805 209.472 17.0778C221.439 8.77508 237.154 4.75253 253.158 5.89503C269.162 7.03753 284.145 13.2515 294.811 23.1699C305.478 33.0884 310.953 45.8988 310.033 58.7831L249.69 54.4753L189.346 50.1674Z" fill="#EBCFC4" stroke="black" stroke-width="7" stroke-linejoin="round"/>
<path d="M221.613 52.5102C222.533 39.6259 226.417 27.4836 232.41 18.7545C238.404 10.0254 246.016 5.42445 253.572 5.96387C261.128 6.50329 268.01 12.1389 272.702 21.6309C277.395 31.1228 279.515 43.6937 278.595 56.578L250.104 54.5441L221.613 52.5102Z" stroke="black" stroke-width="7"/>
</svg>
