<svg width="400" height="400" viewBox="0 0 400 400" fill="none" xmlns="http://www.w3.org/2000/svg">
<path d="M84 143H48L66 162L84 143Z" stroke="black" stroke-width="9" stroke-linejoin="round"/>
<path d="M120 143H84L102 162L120 143Z" stroke="black" stroke-width="9" stroke-linejoin="round"/>
<path d="M156 143H120L138 162L156 143Z" stroke="black" stroke-width="9" stroke-linejoin="round"/>
<path d="M374 275.5L337.25 297.584L337.25 253.416L374 275.5Z" fill="white" stroke="black" stroke-width="9" stroke-linecap="round" stroke-linejoin="round"/>
<path d="M374 225.5L337.25 247.584L337.25 203.416L374 225.5Z" fill="white" stroke="black" stroke-width="9" stroke-linecap="round" stroke-linejoin="round"/>
<path d="M374 174.5L337.25 196.584L337.25 152.416L374 174.5Z" fill="white" stroke="black" stroke-width="9" stroke-linecap="round" stroke-linejoin="round"/>
<path d="M374 124.5L337.25 146.584L337.25 102.416L374 124.5Z" fill="white" stroke="black" stroke-width="9" stroke-linecap="round" stroke-linejoin="round"/>
<path d="M353.827 56.0199L336.036 95.0293L311.031 58.6217L353.827 56.0199Z" fill="white" stroke="black" stroke-width="9" stroke-linecap="round" stroke-linejoin="round"/>
<path d="M200 50V50C177.909 50 160 67.9086 160 90V95L64.8491 107.29C50.6384 109.126 40 121.227 40 135.556V143H160V163H47C47 171.884 53.3148 179.701 62.0421 181.362L160 195.5V200V295C160 315.987 177.013 333 198 333H200H375C354.013 333 337 315.987 337 295V200V113.5C337 78.4299 308.57 50 273.5 50H200Z" fill="#86CC6E"/>
<path d="M160 95H164.5V98.9561L160.576 99.4629L160 95ZM160 143V138.5H164.5V143H160ZM160 163H164.5V167.5H160V163ZM64.8491 107.29L65.4256 111.753L65.4256 111.753L64.8491 107.29ZM40 143V147.5C37.5147 147.5 35.5 145.485 35.5 143H40ZM47 163H42.5V158.5H47V163ZM160 195.5L160.643 191.046L164.5 191.603V195.5H160ZM62.0421 181.362L61.3993 185.816L61.2998 185.801L61.201 185.783L62.0421 181.362ZM164.5 90V95H155.5V90H164.5ZM164.5 143V163H155.5V143H164.5ZM64.2726 102.827L159.424 90.5371L160.576 99.4629L65.4256 111.753L64.2726 102.827ZM160 147.5H40V138.5H160V147.5ZM35.5 143V135.556H44.5V143H35.5ZM65.4256 111.753C53.4587 113.299 44.5 123.489 44.5 135.556H35.5C35.5 118.964 47.8182 104.953 64.2726 102.827L65.4256 111.753ZM47 158.5H160V167.5H47V158.5ZM159.357 199.954L61.3993 185.816L62.6849 176.908L160.643 191.046L159.357 199.954ZM61.201 185.783C50.2968 183.708 42.5 173.989 42.5 163H51.5C51.5 169.778 56.3328 175.695 62.8832 176.941L61.201 185.783ZM164.5 195.5V200H155.5V195.5H164.5ZM200 45.5H273.5V54.5H200V45.5ZM341.5 113.5V200H332.5V113.5H341.5ZM273.5 45.5C311.055 45.5 341.5 75.9446 341.5 113.5H332.5C332.5 80.9152 306.085 54.5 273.5 54.5V45.5ZM376 337.5H375V328.5H376V337.5ZM332.5 295V200H341.5V295H332.5ZM375 337.5H200V328.5H375V337.5ZM375 337.5C351.528 337.5 332.5 318.472 332.5 295H341.5C341.5 313.502 356.498 328.5 375 328.5V337.5ZM200 337.5H198V328.5H200V337.5ZM155.5 295V200H164.5V295H155.5ZM198 337.5C174.528 337.5 155.5 318.472 155.5 295H164.5C164.5 313.502 179.498 328.5 198 328.5V337.5ZM200 54.5C180.394 54.5 164.5 70.3939 164.5 90H155.5C155.5 65.4233 175.423 45.5 200 45.5V54.5Z" fill="black"/>
<path d="M241 240V299L249.25 309.5L257.5 299L265.75 309.5L274 299L282.25 309.5L290.5 299L298.75 309.5L307 299V240" stroke="black" stroke-width="9" stroke-linecap="round" stroke-linejoin="round"/>
<path d="M221.812 383L219 378L230 372.5V333H219V363.5L206 369L215 385L221.812 383Z" fill="#86CC6E"/>
<path d="M307 394V333H230V372.5L219 378L221.812 383L228 394H307Z" fill="#86CC6E"/>
<path d="M228 394H307V333H230M228 394L219 378M228 394L221.812 383M219 378L230 372.5V333M219 378L221.812 383M230 333H219V363.5L206 369L215 385L221.812 383" stroke="black" stroke-width="9" stroke-linecap="round" stroke-linejoin="round"/>
<path d="M262 129L234.5 99L207 129" stroke="black" stroke-width="9" stroke-linecap="round" stroke-linejoin="round"/>
</svg>
