<svg width="400" height="400" viewBox="0 0 400 400" fill="none" xmlns="http://www.w3.org/2000/svg">
<path d="M337 113.5C337 78.4299 308.57 50 273.5 50H200C177.909 50 160 67.9086 160 90V98.7222C160 98.7222 116.249 105.744 88.0001 110.681C91.4971 119.287 90.992 138.2 60.9956 145C62.6928 155.395 65.497 164.921 66.0001 167C68.0422 175.439 74.8149 183.201 83.5422 184.862L160 195.5L160 200V295C160 315.987 177.013 333 198 333H200H375C354.013 333 337 315.987 337 295L337 200V113.5Z" fill="#D9B785"/>
<path d="M88.0001 110.681C78.8949 112.272 71.4002 113.647 67.5001 114.5C58.4533 116.479 58.7874 131.475 60.9956 145M88.0001 110.681C116.249 105.744 160 98.7222 160 98.7222V90C160 67.9086 177.909 50 200 50H273.5C308.57 50 337 78.4299 337 113.5V200L337 295C337 315.987 354.013 333 375 333M88.0001 110.681C91.4971 119.287 90.992 138.2 60.9956 145M60.9956 145C62.6928 155.395 65.497 164.921 66.0001 167C68.0422 175.439 74.8149 183.201 83.5422 184.862L160 195.5L160 200V295C160 315.987 177.013 333 198 333H200H375M377 333H375" stroke="black" stroke-width="9"/>
<path d="M88.0001 110.68C78.8949 112.271 71.4002 113.646 67.5001 114.499C58.4533 116.478 58.7874 131.474 60.9956 144.999C90.992 138.199 91.4971 119.286 88.0001 110.68Z" fill="black" stroke="black" stroke-width="9"/>
<path d="M241 240V299L249.25 309.5L257.5 299L265.75 309.5L274 299L282.25 309.5L290.5 299L298.75 309.5L307 299V240" stroke="black" stroke-width="9" stroke-linecap="round" stroke-linejoin="round"/>
<path d="M221.812 383L219 378L230 372.5V333H219V363.5L206 369L215 385L221.812 383Z" fill="#D9B785"/>
<path d="M307 394V333H230V372.5L219 378L221.812 383L228 394H307Z" fill="#D9B785"/>
<path d="M228 394H307V333H230M228 394L219 378M228 394L221.812 383M219 378L230 372.5V333M219 378L221.812 383M230 333H219V363.5L206 369L215 385L221.812 383" stroke="black" stroke-width="9" stroke-linecap="round" stroke-linejoin="round"/>
<path d="M297.119 108.242L318.889 174.766L356.298 162.524L334.528 95.9999L297.119 108.242Z" fill="#D9B785"/>
<path d="M297.136 108.697L318.906 175.221L356.315 162.979L334.545 96.455" stroke="black" stroke-width="9" stroke-linecap="round" stroke-linejoin="round"/>
<circle cx="241" cy="116" r="33.5" fill="white" stroke="black" stroke-width="9"/>
<circle cx="232.5" cy="115.5" r="18.5" fill="black"/>
<rect x="155.093" y="50.9902" width="107.353" height="14.7337" rx="4" transform="rotate(-4.91471 155.093 50.9902)" fill="#EBCFC4" stroke="black" stroke-width="7"/>
<path d="M198.244 51.1955C199.472 38.337 206.995 26.6112 219.158 18.5976C231.32 10.584 247.126 6.93916 263.098 8.4648C279.071 9.99044 293.901 16.5616 304.326 26.7328C314.752 36.9039 319.919 49.8419 318.691 62.7004L258.467 56.948L198.244 51.1955Z" fill="#EBCFC4" stroke="black" stroke-width="7" stroke-linejoin="round"/>
<path d="M230.447 54.3115C231.675 41.4529 235.849 29.4072 242.05 20.8242C248.251 12.2411 255.971 7.82393 263.512 8.54424C271.053 9.26456 277.797 15.0634 282.261 24.6651C286.725 34.2668 288.543 46.8848 287.315 59.7434L258.881 57.0274L230.447 54.3115Z" stroke="black" stroke-width="7"/>
</svg>
