<svg width="400" height="400" viewBox="0 0 400 400" fill="none" xmlns="http://www.w3.org/2000/svg">
<path d="M200 50V50C177.909 50 160 67.9086 160 90V200V295C160 315.987 177.013 333 198 333H200H375C354.013 333 337 315.987 337 295V200V113.5C337 78.4299 308.57 50 273.5 50H200Z" fill="white"/>
<path d="M377 333H375M375 333H200H198C177.013 333 160 315.987 160 295V200V90C160 67.9086 177.909 50 200 50V50H273.5C308.57 50 337 78.4299 337 113.5V200V295C337 315.987 354.013 333 375 333Z" stroke="black" stroke-width="9"/>
<path d="M160 124L98 154.5L160 154.5L160 124Z" fill="#FFE977"/>
<path d="M98 154.5L160 185L160 154.5L98 154.5Z" fill="#FFE977"/>
<path d="M98 154.5L160 124L160 154.5M98 154.5L160 185L160 154.5M98 154.5L160 154.5" stroke="black" stroke-width="9" stroke-linejoin="round"/>
<path d="M229.611 335L227.385 364.029M212.398 383.5L227.385 364.029M227.385 364.029L229.611 383.5M227.385 364.029L207.949 366.843M264.5 335L266.108 366.41M262 383.501L266.108 366.41M266.108 366.41L250 374.002M266.108 366.41L278 381.855" stroke="black" stroke-width="9" stroke-linecap="round" stroke-linejoin="round"/>
<path d="M240 248V270C240 289.882 256.118 306 276 306H306V248" stroke="black" stroke-width="9" stroke-linecap="round" stroke-linejoin="round"/>
<path d="M262 302V269M284 302V269" stroke="black" stroke-width="9" stroke-linecap="round" stroke-linejoin="round"/>
<path d="M374.001 174.5L337.251 196.584L337.251 152.416L374.001 174.5Z" fill="#F34B4B" stroke="black" stroke-width="9" stroke-linecap="round" stroke-linejoin="round"/>
<path d="M374.001 124.5L337.251 146.584L337.251 102.416L374.001 124.5Z" fill="#F34B4B" stroke="black" stroke-width="9" stroke-linecap="round" stroke-linejoin="round"/>
<path d="M353.828 56.0199L336.037 95.0293L311.032 58.6217L353.828 56.0199Z" fill="#F34B4B" stroke="black" stroke-width="9" stroke-linecap="round" stroke-linejoin="round"/>
<circle cx="241" cy="116" r="33.5" fill="white" stroke="black" stroke-width="9"/>
<path d="M251 115.5C251 120.407 249.051 125.112 245.581 128.581C242.112 132.051 237.407 134 232.5 134C227.593 134 222.888 132.051 219.419 128.581C215.949 125.112 214 120.407 214 115.5L232.5 115.5H251Z" fill="black"/>
<rect x="210" y="107" width="61" height="9" fill="black"/>
<path d="M289.482 50.1863L361.142 45.0084L335.473 112.113L289.482 50.1863Z" fill="#FF2424" stroke="black" stroke-width="9"/>
<circle cx="369.349" cy="39.6916" r="12" transform="rotate(53.4 369.349 39.6916)" fill="white" stroke="black" stroke-width="9"/>
</svg>
