<svg width="400" height="400" viewBox="0 0 400 400" fill="none" xmlns="http://www.w3.org/2000/svg">
<path d="M200 50V50C177.909 50 160 67.9086 160 90V200V295C160 315.987 177.013 333 198 333H200H375C354.013 333 337 315.987 337 295V200V113.5C337 78.4299 308.57 50 273.5 50H200Z" fill="#FFE977"/>
<path d="M377 333H375M375 333H200H198C177.013 333 160 315.987 160 295V200V90C160 67.9086 177.909 50 200 50V50H273.5C308.57 50 337 78.4299 337 113.5V200V295C337 315.987 354.013 333 375 333Z" stroke="black" stroke-width="9"/>
<path d="M160 124L98 154.5L160 154.5L160 124Z" fill="#FFE977"/>
<path d="M98 154.5L160 185L160 154.5L98 154.5Z" fill="#FFE977"/>
<path d="M98 154.5L160 124L160 154.5M98 154.5L160 185L160 154.5M98 154.5L160 154.5" stroke="black" stroke-width="9" stroke-linejoin="round"/>
<path d="M229.611 335L227.385 364.029M212.398 383.5L227.385 364.029M227.385 364.029L229.611 383.5M227.385 364.029L207.949 366.843M264.5 335L266.108 366.41M262 383.501L266.108 366.41M266.108 366.41L250 374.002M266.108 366.41L278 381.855" stroke="black" stroke-width="9" stroke-linecap="round" stroke-linejoin="round"/>
<path d="M240 248V270C240 289.882 256.118 306 276 306H306V248" stroke="black" stroke-width="9" stroke-linecap="round" stroke-linejoin="round"/>
<path d="M262 302V269M284 302V269" stroke="black" stroke-width="9" stroke-linecap="round" stroke-linejoin="round"/>
<circle cx="241" cy="116" r="33.5" fill="white" stroke="black" stroke-width="9"/>
<circle cx="232.5" cy="115.5" r="18.5" fill="black"/>
<path d="M211.791 36.2017C213.591 26.8558 221.17 19.0198 232.861 14.4177C244.552 9.8155 259.398 8.82411 274.132 11.6616C288.866 14.499 302.282 20.9329 311.427 29.5479C320.573 38.1629 324.7 48.2532 322.901 57.5991L267.346 46.9004L211.791 36.2017Z" fill="#4986E1" stroke="black" stroke-width="7"/>
<path d="M229.808 39.6738C231.608 30.3279 237.394 22.1467 245.894 16.93C254.394 11.7132 264.911 9.88829 275.132 11.8566C285.353 13.825 294.44 19.4253 300.395 27.4257C306.35 35.4261 308.684 45.1711 306.884 54.517L268.346 47.0954L229.808 39.6738Z" stroke="black" stroke-width="7"/>
<path d="M251.831 43.9129C253.631 34.567 257.044 25.9288 261.32 19.8987C265.597 13.8685 270.385 10.9404 274.633 11.7584C278.881 12.5764 282.239 17.0735 283.97 24.2605C285.701 31.4475 285.662 40.7356 283.862 50.0815L267.847 46.9972L251.831 43.9129Z" stroke="black" stroke-width="7"/>
<rect x="206.786" y="35.2383" width="123.345" height="14.9526" rx="4" transform="rotate(10.9005 206.786 35.2383)" fill="#4986E1" stroke="black" stroke-width="7"/>
</svg>
