<svg width="400" height="400" viewBox="0 0 400 400" fill="none" xmlns="http://www.w3.org/2000/svg">
<path d="M337 113.5C337 78.4299 308.57 50 273.5 50H200C177.909 50 160 67.9086 160 90V98.7222C160 98.7222 116.249 105.744 88.0001 110.681C91.4971 119.287 90.992 138.2 60.9956 145C62.6928 155.395 65.497 164.921 66.0001 167C68.0422 175.439 74.8149 183.201 83.5422 184.862L160 195.5L160 200V295C160 315.987 177.013 333 198 333H200H375C354.013 333 337 315.987 337 295L337 200V113.5Z" fill="#D9B785"/>
<path d="M88.0001 110.681C78.8949 112.272 71.4002 113.647 67.5001 114.5C58.4533 116.479 58.7874 131.475 60.9956 145M88.0001 110.681C116.249 105.744 160 98.7222 160 98.7222V90C160 67.9086 177.909 50 200 50H273.5C308.57 50 337 78.4299 337 113.5V200L337 295C337 315.987 354.013 333 375 333M88.0001 110.681C91.4971 119.287 90.992 138.2 60.9956 145M60.9956 145C62.6928 155.395 65.497 164.921 66.0001 167C68.0422 175.439 74.8149 183.201 83.5422 184.862L160 195.5L160 200V295C160 315.987 177.013 333 198 333H200H375M377 333H375" stroke="black" stroke-width="9"/>
<path d="M88.0001 110.68C78.8949 112.271 71.4002 113.646 67.5001 114.499C58.4533 116.478 58.7874 131.474 60.9956 144.999C90.992 138.199 91.4971 119.286 88.0001 110.68Z" fill="black" stroke="black" stroke-width="9"/>
<path d="M241 240V299L249.25 309.5L257.5 299L265.75 309.5L274 299L282.25 309.5L290.5 299L298.75 309.5L307 299V240" stroke="black" stroke-width="9" stroke-linecap="round" stroke-linejoin="round"/>
<path d="M221.812 383L219 378L230 372.5V333H219V363.5L206 369L215 385L221.812 383Z" fill="#D9B785"/>
<path d="M307 394V333H230V372.5L219 378L221.812 383L228 394H307Z" fill="#D9B785"/>
<path d="M228 394H307V333H230M228 394L219 378M228 394L221.812 383M219 378L230 372.5V333M219 378L221.812 383M230 333H219V363.5L206 369L215 385L221.812 383" stroke="black" stroke-width="9" stroke-linecap="round" stroke-linejoin="round"/>
<path d="M297.119 108.242L318.889 174.766L356.298 162.524L334.528 95.9999L297.119 108.242Z" fill="#D9B785"/>
<path d="M297.136 108.697L318.906 175.221L356.315 162.979L334.545 96.455" stroke="black" stroke-width="9" stroke-linecap="round" stroke-linejoin="round"/>
<circle cx="241" cy="116" r="33.5" fill="white" stroke="black" stroke-width="9"/>
<path d="M251 115.5C251 120.407 249.051 125.112 245.581 128.581C242.112 132.051 237.407 134 232.5 134C227.593 134 222.888 132.051 219.419 128.581C215.949 125.112 214 120.407 214 115.5L232.5 115.5H251Z" fill="black"/>
<rect x="210" y="107" width="61" height="9" fill="black"/>
<path d="M214.791 36.2017C216.591 26.8558 224.17 19.0198 235.861 14.4177C247.552 9.8155 262.398 8.82411 277.132 11.6616C291.866 14.499 305.282 20.9329 314.427 29.5479C323.573 38.1629 327.7 48.2532 325.901 57.5991L270.346 46.9004L214.791 36.2017Z" fill="#4986E1" stroke="black" stroke-width="7"/>
<path d="M232.808 39.6738C234.608 30.3279 240.394 22.1467 248.894 16.93C257.394 11.7132 267.911 9.88829 278.132 11.8566C288.353 13.825 297.44 19.4253 303.395 27.4257C309.35 35.4261 311.684 45.1711 309.884 54.517L271.346 47.0954L232.808 39.6738Z" stroke="black" stroke-width="7"/>
<path d="M254.831 43.9129C256.631 34.567 260.044 25.9288 264.32 19.8987C268.597 13.8685 273.385 10.9404 277.633 11.7584C281.881 12.5764 285.239 17.0735 286.97 24.2605C288.701 31.4475 288.662 40.7356 286.862 50.0815L270.847 46.9972L254.831 43.9129Z" stroke="black" stroke-width="7"/>
<rect x="209.786" y="35.2383" width="123.345" height="14.9526" rx="4" transform="rotate(10.9005 209.786 35.2383)" fill="#4986E1" stroke="black" stroke-width="7"/>
</svg>
