<svg width="400" height="400" viewBox="0 0 400 400" fill="none" xmlns="http://www.w3.org/2000/svg">
<path d="M160 90C160 67.9086 177.909 50 200 50V50H273.5C308.57 50 337 78.4299 337 113.5V200V295C337 315.987 354.013 333 375 333H200H198C177.013 333 160 315.987 160 295V200V195.5L117.5 180.197C108.958 176.99 102 170.774 99.9579 162.335C99.4548 160.256 99.6927 161.214 97.9955 150.819C127.992 144.019 128.497 125.106 125 116.5C153.249 111.563 160 110.5 160 110.5V90Z" fill="white"/>
<path d="M160 110.5H164.5V114.347L160.7 114.945L160 110.5ZM104.5 120.319L103.538 115.923L104.5 120.319ZM99.9579 162.335L104.332 161.277L99.9579 162.335ZM160 195.5L161.525 191.266L164.5 192.337V195.5H160ZM117.5 180.197L115.975 184.431L115.947 184.421L115.919 184.41L117.5 180.197ZM164.5 90V110.5H155.5V90H164.5ZM158.475 199.734L115.975 184.431L119.025 175.963L161.525 191.266L158.475 199.734ZM115.919 184.41C106.451 180.856 98.0806 173.71 95.5841 163.393L104.332 161.277C105.919 167.838 111.465 173.125 119.081 175.984L115.919 184.41ZM103.538 115.923C107.547 115.046 115.137 113.655 124.225 112.067L125.775 120.933C116.652 122.527 109.253 123.886 105.462 124.715L103.538 115.923ZM124.225 112.067C138.355 109.598 147.114 108.096 152.343 107.212C154.957 106.769 156.691 106.481 157.773 106.303C158.314 106.214 158.693 106.152 158.938 106.113C159.06 106.093 159.149 106.079 159.208 106.069C159.238 106.065 159.26 106.061 159.275 106.059C159.283 106.058 159.288 106.057 159.293 106.056C159.295 106.056 159.296 106.055 159.298 106.055C159.298 106.055 159.299 106.055 159.299 106.055C159.299 106.055 159.3 106.055 159.3 106.055C159.3 106.055 159.3 106.055 160 110.5C160.7 114.945 160.7 114.945 160.7 114.945C160.7 114.945 160.7 114.945 160.7 114.945C160.7 114.945 160.7 114.945 160.7 114.945C160.7 114.945 160.699 114.945 160.697 114.946C160.695 114.946 160.691 114.947 160.685 114.948C160.672 114.95 160.653 114.953 160.626 114.957C160.573 114.965 160.489 114.979 160.372 114.998C160.137 115.036 159.768 115.096 159.235 115.184C158.168 115.359 156.448 115.645 153.844 116.086C148.635 116.967 139.894 118.465 125.775 120.933L124.225 112.067ZM105.462 124.715C103.891 125.059 102.2 126.578 101.486 131.844C100.807 136.854 101.352 143.45 102.437 150.094L93.5543 151.544C92.4309 144.663 91.7048 136.999 92.568 130.635C93.3964 124.526 96.062 117.558 103.538 115.923L105.462 124.715ZM102.437 150.094C104.17 160.712 103.882 159.418 104.332 161.277L95.5841 163.393C95.0277 161.094 95.2151 161.716 93.5543 151.544L102.437 150.094ZM129.169 114.806C131.315 120.088 132.207 128.369 128.056 136.403C123.834 144.572 114.863 151.61 98.9904 155.208L97.0006 146.43C111.125 143.229 117.404 137.41 120.06 132.271C122.786 126.997 122.182 121.519 120.831 118.194L129.169 114.806ZM164.5 195.5V200H155.5V195.5H164.5ZM200 45.5H273.5V54.5H200V45.5ZM341.5 113.5V200H332.5V113.5H341.5ZM273.5 45.5C311.055 45.5 341.5 75.9446 341.5 113.5H332.5C332.5 80.9152 306.085 54.5 273.5 54.5V45.5ZM377 337.5H375V328.5H377V337.5ZM332.5 295V200H341.5V295H332.5ZM375 337.5H200V328.5H375V337.5ZM375 337.5C351.528 337.5 332.5 318.472 332.5 295H341.5C341.5 313.502 356.498 328.5 375 328.5V337.5ZM200 337.5H198V328.5H200V337.5ZM155.5 295V200H164.5V295H155.5ZM198 337.5C174.528 337.5 155.5 318.472 155.5 295H164.5C164.5 313.502 179.498 328.5 198 328.5V337.5ZM200 54.5C180.394 54.5 164.5 70.3939 164.5 90H155.5C155.5 65.4233 175.423 45.5 200 45.5V54.5Z" fill="black"/>
<path d="M125 116.5C115.895 118.091 108.4 119.466 104.5 120.319C95.453 122.298 95.7872 137.294 97.9953 150.819C127.992 144.019 128.497 125.106 125 116.5Z" fill="black"/>
<path d="M104.5 120.319L103.538 115.923L103.538 115.923L104.5 120.319ZM125 116.5L124.225 112.067L127.802 111.442L129.169 114.806L125 116.5ZM97.9953 150.819L98.9902 155.208L94.325 156.265L93.5541 151.544L97.9953 150.819ZM103.538 115.923C107.547 115.046 115.137 113.655 124.225 112.067L125.775 120.933C116.652 122.527 109.252 123.886 105.461 124.715L103.538 115.923ZM105.461 124.715C103.891 125.059 102.2 126.578 101.486 131.844C100.807 136.854 101.352 143.45 102.437 150.094L93.5541 151.544C92.4307 144.663 91.7046 136.999 92.5678 130.635C93.3962 124.526 96.0618 117.558 103.538 115.923L105.461 124.715ZM129.169 114.806C131.315 120.088 132.207 128.369 128.055 136.403C123.834 144.572 114.863 151.61 98.9902 155.208L97.0005 146.43C111.124 143.229 117.404 137.41 120.06 132.271C122.785 126.997 122.182 121.519 120.831 118.194L129.169 114.806Z" fill="black"/>
<path d="M161.012 143.857L185.857 150.337M154.271 156.046L178.58 170.023M144.201 166.762L161.81 185.362" stroke="black" stroke-width="9" stroke-linecap="round" stroke-linejoin="round"/>
<path d="M221.812 383L219 378L230 372.5V333H219V363.5L206 369L215 385L221.812 383Z" fill="white"/>
<path d="M307 394V333H230V372.5L219 378L221.812 383L228 394H307Z" fill="white"/>
<path d="M228 394H307V333H230M228 394L219 378M228 394L221.812 383M219 378L230 372.5V333M219 378L221.812 383M230 333H219V363.5L206 369L215 385L221.812 383" stroke="black" stroke-width="9" stroke-linecap="round" stroke-linejoin="round"/>
<path d="M241 240V282C241 293.322 255.775 302.5 274 302.5C292.225 302.5 307 293.322 307 282V240" stroke="black" stroke-width="9" stroke-linecap="round" stroke-linejoin="round"/>
<path d="M263 300V282M285 300V282" stroke="black" stroke-width="9" stroke-linecap="round" stroke-linejoin="round"/>
<path d="M336.792 121.273L363.117 75.5014L312 62.27L336.792 121.273Z" fill="white" stroke="black" stroke-width="9" stroke-linecap="round" stroke-linejoin="round"/>
<path d="M330.207 105.601L342.835 84.0241L318.586 77.9429L330.207 105.601Z" fill="white" stroke="black" stroke-width="9" stroke-linecap="round" stroke-linejoin="round"/>
<path d="M262 129L234.5 99L207 129" stroke="black" stroke-width="9" stroke-linecap="round" stroke-linejoin="round"/>
<path d="M202.289 37.1992C203.141 27.7198 209.895 19.1623 221.065 13.4093C232.235 7.65632 246.906 5.17905 261.85 6.52248C276.795 7.86592 290.789 12.92 300.753 20.5729C310.718 28.2258 315.838 37.8507 314.985 47.3301L258.637 42.2647L202.289 37.1992Z" fill="#4986E1" stroke="black" stroke-width="7"/>
<path d="M220.563 38.8414C221.415 29.362 226.351 20.6411 234.284 14.5971C242.217 8.55311 252.498 5.68119 262.865 6.61312C273.232 7.54505 282.836 12.2045 289.564 19.5664C296.292 26.9284 299.593 36.3897 298.74 45.8691L259.652 42.3553L220.563 38.8414Z" stroke="black" stroke-width="7"/>
<path d="M242.901 40.8489C243.753 31.3695 246.281 22.4322 249.93 16.0031C253.58 9.57401 258.05 6.17976 262.358 6.56706C266.667 6.95435 270.46 11.0915 272.904 18.0683C275.348 25.0451 276.242 34.2901 275.39 43.7695L259.145 42.3092L242.901 40.8489Z" stroke="black" stroke-width="7"/>
<rect x="197.213" y="36.7422" width="123.345" height="14.9526" rx="4" transform="rotate(5.13678 197.213 36.7422)" fill="#4986E1" stroke="black" stroke-width="7"/>
</svg>
