<svg fill="none" height="1024" viewBox="0 0 1440 1024" width="1440" xmlns="http://www.w3.org/2000/svg"><g stroke="#7881a0" stroke-width="2"><g stroke-linecap="round"><path d="m720 932h-60v-120h60z"/><path d="m300 452h-60v-120h60z" fill="#988ca8"/><path d="m300 992v60h-120v-60z"/><path d="m240 812h60v120h-60z"/><path d="m960 212h60v120h-60z" fill="#988ca8"/><path d="m180 812h60v120h-60z"/><path d="m900 212h60v120h-60z"/><path d="m540 92v60h-120v-60z"/><path d="m1380 572v60h-120v-60z" fill="#988ca8"/></g><path d="m660 812c-15.759 0-31.363-3.104-45.922-9.134-14.559-6.031-27.788-14.87-38.931-26.013s-19.982-24.372-26.013-38.931c-6.03-14.559-9.134-30.163-9.134-45.922h120z"/><path d="m660 92c-15.759 0-31.363-3.1039-45.922-9.1345-14.559-6.0305-27.788-14.8697-38.931-26.0127-11.143-11.1431-19.982-24.3718-26.013-38.9308-6.03-14.55913-9.134-30.1635-9.134-45.9221l120 .0001z" fill="#a49694"/><path d="m420 692c-15.759 0-31.363-3.104-45.922-9.134-14.559-6.031-27.788-14.87-38.931-26.013s-19.982-24.372-26.013-38.931c-6.03-14.559-9.134-30.163-9.134-45.922h120z"/><path d="m900 212c0 15.759-3.104 31.363-9.134 45.922-6.031 14.559-14.87 27.788-26.013 38.931s-24.372 19.982-38.931 26.013c-14.559 6.03-30.163 9.134-45.922 9.134v-120z"/><path d="m1140 812c-15.76 0-31.36-3.104-45.92-9.134-14.56-6.031-27.79-14.87-38.93-26.013-11.15-11.143-19.99-24.372-26.02-38.931s-9.13-30.163-9.13-45.922h120z"/><path d="m1140 212c-15.76 0-31.36-3.104-45.92-9.134-14.56-6.031-27.79-14.87-38.93-26.013-11.15-11.143-19.99-24.372-26.02-38.931s-9.13-30.163-9.13-45.9221l120 .0001z" fill="#a49694"/><path d="m540 212c15.759 0 31.363 3.104 45.922 9.134 14.559 6.031 27.788 14.87 38.931 26.013s19.982 24.372 26.013 38.931c6.03 14.559 9.134 30.163 9.134 45.922h-120z" fill="#988ca8"/><path d="m900 932c15.759 0 31.363 3.104 45.922 9.134 14.559 6.031 27.788 14.87 38.931 26.013s19.977 24.372 26.017 38.933c6.03 14.56 9.13 30.16 9.13 45.92h-120z" fill="#a49694"/><path d="m540 572c0 15.759-3.104 31.363-9.134 45.922-6.031 14.559-14.87 27.788-26.013 38.931s-24.372 19.982-38.931 26.013c-14.559 6.03-30.163 9.134-45.922 9.134v-120z" fill="#a49694"/><path d="m300 452c0 15.759-3.104 31.363-9.134 45.922-6.031 14.559-14.87 27.788-26.013 38.931s-24.372 19.982-38.931 26.013c-14.559 6.03-30.163 9.134-45.922 9.134v-120z"/><path d="m1140 452c0-15.759 3.1-31.363 9.13-45.922 6.04-14.559 14.87-27.788 26.02-38.931 11.14-11.143 24.37-19.982 38.93-26.013 14.56-6.03 30.16-9.134 45.92-9.134v120z"/><path d="m1260 1052v-120h120m-120 120h120v-120m-120 120 120-120"/><path d="m420 992v60h120v-60m-120 0v-60h120v60m-120 0h120"/><path d="m180 272v-60h-120v60m120 0v60h-120v-60m120 0h-120"/><path d="m1080 932h60v-120h-60m0 120h-60v-120h60m0 120v-120"/><path d="m660 812v-120h120m-120 120h120v-120m-120 120 120-120"/><path d="m660 92v-120h120m-120 120h120v-120m-120 120 120-120"/><path d="m1260 812h-120v-120m120 120v-120h-120m120 120-120-120"/><path d="m1380 812v-120h120m-120 120h120v-120m-120 120 120-120"/><path d="m780 452v120h-120m120-120h-120v120m120-120-120 120"/><path d="m420-28v120h-120m120-120h-120v120m120-120-120 120"/><path d="m540 332h120v120m-120-120v120h120m-120-120 120 120"/><path d="m660 212v-120h120m-120 120h120v-120m-120 120 120-120"/><path d="m-60 812v-120h120m-120 120h120v-120m-120 120 120-120"/><path d="m1020 452h-120l120 120z"/><path d="m420 812h-120l120 120z" fill="#988ca8"/><path d="m300 932h120l-120-120z"/><path d="m180 692v-120l-120 120z" fill="#988ca8"/><path d="m60 572v120l120-120z"/><path d="m1380 452h120l-120-120z" fill="#a49694"/><circle cx="960" cy="392" r="60"/><circle cx="1200" cy="992" fill="#988ca8" r="60"/><circle cx="720" cy="992" r="60"/><path d="m1380 632c0 7.879-1.55 15.681-4.57 22.961-3.01 7.28-7.43 13.894-13 19.465-5.58 5.572-12.19 9.991-19.47 13.007-7.28 3.015-15.08 4.567-22.96 4.567s-15.68-1.552-22.96-4.567c-7.28-3.016-13.89-7.435-19.47-13.007-5.57-5.571-9.99-12.185-13-19.465-3.02-7.28-4.57-15.082-4.57-22.961h60z"/><path d="m900 1052c-7.879 0-15.681-1.55-22.961-4.57-7.28-3.01-13.894-7.43-19.465-13-5.572-5.58-9.991-12.19-13.007-19.47-3.015-7.28-4.567-15.081-4.567-22.96s1.552-15.681 4.567-22.961c3.016-7.28 7.435-13.894 13.007-19.465 5.571-5.572 12.185-9.991 19.465-13.007 7.28-3.015 15.082-4.567 22.961-4.567v60z"/><path d="m420 212c0-7.879 1.552-15.681 4.567-22.961 3.016-7.28 7.435-13.894 13.007-19.465 5.571-5.572 12.185-9.991 19.465-13.007 7.28-3.015 15.082-4.567 22.961-4.567s15.681 1.552 22.961 4.567c7.28 3.016 13.894 7.435 19.465 13.007 5.572 5.571 9.991 12.185 13.007 19.465 3.015 7.28 4.567 15.082 4.567 22.961h-60z"/><path d="m1260 332c7.88 0 15.68 1.552 22.96 4.567 7.28 3.016 13.89 7.435 19.47 13.007 5.57 5.571 9.99 12.185 13 19.465 3.02 7.28 4.57 15.082 4.57 22.961s-1.55 15.681-4.57 22.961c-3.01 7.28-7.43 13.894-13 19.465-5.58 5.572-12.19 9.991-19.47 13.007-7.28 3.015-15.08 4.567-22.96 4.567v-60z"/><path d="m1440 1052c-7.88 0-15.68-1.55-22.96-4.57-7.28-3.01-13.89-7.43-19.47-13-5.57-5.58-9.99-12.19-13-19.47-3.02-7.28-4.57-15.081-4.57-22.96s1.55-15.681 4.57-22.961c3.01-7.28 7.43-13.894 13-19.465 5.58-5.572 12.19-9.991 19.47-13.007 7.28-3.015 15.08-4.567 22.96-4.567v60z"/><path d="m720 812c7.879 0 15.681 1.552 22.961 4.567 7.28 3.016 13.894 7.435 19.465 13.007 5.572 5.571 9.991 12.185 13.007 19.465 3.015 7.28 4.567 15.082 4.567 22.961s-1.552 15.681-4.567 22.961c-3.016 7.28-7.435 13.894-13.007 19.465-5.571 5.572-12.185 9.991-19.465 13.007-7.28 3.015-15.082 4.567-22.961 4.567v-60z"/><path d="m540 452c7.879 0 15.681 1.552 22.961 4.567 7.28 3.016 13.894 7.435 19.465 13.007 5.572 5.571 9.991 12.185 13.007 19.465 3.015 7.28 4.567 15.082 4.567 22.961s-1.552 15.681-4.567 22.961c-3.016 7.28-7.435 13.894-13.007 19.465-5.571 5.572-12.185 9.991-19.465 13.007-7.28 3.015-15.082 4.567-22.961 4.567v-60z"/><path d="m840 572c7.879 0 15.681 1.552 22.961 4.567 7.28 3.016 13.894 7.435 19.465 13.007 5.572 5.571 9.991 12.185 13.007 19.465 3.015 7.28 4.567 15.082 4.567 22.961s-1.552 15.681-4.567 22.961c-3.016 7.28-7.435 13.894-13.007 19.465-5.571 5.572-12.185 9.991-19.465 13.007-7.28 3.015-15.082 4.567-22.961 4.567v-60z" fill="#a49694"/><path d="m1260 692c7.88 0 15.68 1.552 22.96 4.567 7.28 3.016 13.89 7.435 19.47 13.007 5.57 5.571 9.99 12.185 13 19.465 3.02 7.28 4.57 15.082 4.57 22.961s-1.55 15.681-4.57 22.961c-3.01 7.28-7.43 13.894-13 19.465-5.58 5.572-12.19 9.991-19.47 13.007-7.28 3.015-15.08 4.567-22.96 4.567v-60z"/><path d="m780 572c7.879 0 15.681 1.552 22.961 4.567 7.28 3.016 13.894 7.435 19.465 13.007 5.572 5.571 9.991 12.185 13.007 19.465 3.015 7.28 4.567 15.082 4.567 22.961s-1.552 15.681-4.567 22.961c-3.016 7.28-7.435 13.894-13.007 19.465-5.571 5.572-12.185 9.991-19.465 13.007-7.28 3.015-15.082 4.567-22.961 4.567v-60z"/><path d="m1380 812c-7.88 0-15.68-1.552-22.96-4.567-7.28-3.016-13.89-7.435-19.47-13.007-5.57-5.571-9.99-12.185-13-19.465-3.02-7.28-4.57-15.082-4.57-22.961s1.55-15.681 4.57-22.961c3.01-7.28 7.43-13.894 13-19.465 5.58-5.572 12.19-9.991 19.47-13.007 7.28-3.015 15.08-4.567 22.96-4.567v60z" fill="#a49694"/><path d="m1380 92c-7.88 0-15.68-1.5519-22.96-4.5672s-13.89-7.4349-19.47-13.0064c-5.57-5.5715-9.99-12.1859-13-19.4654-3.02-7.2795-4.57-15.0817-4.57-22.961s1.55-15.6815 4.57-22.96101c3.01-7.27954 7.43-13.89389 13-19.46539 5.58-5.5715 12.19-9.9911 19.47-13.0064s15.08-4.5672 22.96-4.5672v60z"/><path d="m240 1052c-7.879 0-15.681-1.55-22.961-4.57-7.28-3.01-13.894-7.43-19.465-13-5.572-5.58-9.991-12.19-13.007-19.47-3.015-7.28-4.567-15.081-4.567-22.96s1.552-15.681 4.567-22.961c3.016-7.28 7.435-13.894 13.007-19.465 5.571-5.572 12.185-9.991 19.465-13.007 7.28-3.015 15.082-4.567 22.961-4.567v60z" fill="#a49694"/><path d="m1140 332h120l-60-120z" stroke-linecap="round"/><path d="m300 212h120v120h-120z"/><path d="m780 212h120v120h-120z"/><path d="m180 452h120v120h-120z"/><path d="m300 692h120v120h-120z"/><path d="m-60 812h120v120h-120z"/><path d="m-60 452h120v120h-120z"/><path d="m540 692h120v120h-120z"/><path d="m780 572h120v120h-120z"/><path d="m780-28h120v120h-120z"/><path d="m1260 692h120v120h-120z"/><path d="m1260 572h120v120h-120z"/><path d="m1020 212h120v120h-120z"/><path d="m1140 212h120v120h-120z"/><path d="m1020 572h120v120h-120z"/><path d="m1260 92h120v120h-120z"/><path d="m900 452h120v120h-120z"/><path d="m900 332h120v120h-120z"/><path d="m1260 332h120v120h-120z"/><path d="m1140 332h120v120h-120z"/><path d="m780 932h120v120h-120z"/><path d="m900 812h120v120h-120z"/><path d="m1140 452h120v120h-120z"/><path d="m1020 932h120v120h-120z"/><path d="m1140 932h120v120h-120z"/><path d="m1380 932h120v120h-120z"/><path d="m60 692h120v120h-120z"/><path d="m60 812h120v120h-120z"/><path d="m900 92h120v120h-120z"/><path d="m660 572h120v120h-120z"/><path d="m1260-28h120v120h-120z"/><path d="m540-28h120v120h-120z"/><path d="m1380 332h120v120h-120z"/><path d="m1020 692h120v120h-120z"/><path d="m540 212h120v120h-120z"/><path d="m660 932h120v120h-120z"/><path d="m300 452h120v120h-120z"/><path d="m660 812h120v120h-120z"/><path d="m540 452h120v120h-120z"/><path d="m300 572h120v120h-120z"/><path d="m420 572h120v120h-120z"/><path d="m420 92h120v120h-120z"/><path d="m180 932h120v120h-120z"/><path d="m180 332h120v120h-120z"/><path d="m60 92h120v120h-120z" fill="#a49694"/><path d="m-60 92h120v120h-120z"/></g></svg>