<svg fill="none" height="1024" viewBox="0 0 1440 1024" width="1440" xmlns="http://www.w3.org/2000/svg"><g stroke="#bb8c8c" stroke-width="2"><g stroke-linecap="round"><path d="m670 872h-60v-120h60z"/><path d="m250 392h-60v-120h60z" fill="#b395b8"/><path d="m250 932v60h-120v-60z"/><path d="m190 752h60v120h-60z"/><path d="m910 152h60v120h-60z" fill="#b395b8"/><path d="m130 752h60v120h-60z"/><path d="m850 152h60v120h-60z"/><path d="m490 32v60h-120v-60z"/><path d="m1330 512v60h-120v-60z" fill="#b395b8"/></g><path d="m610 752c-15.759 0-31.363-3.104-45.922-9.134-14.559-6.031-27.788-14.87-38.931-26.013s-19.982-24.372-26.013-38.931c-6.03-14.559-9.134-30.163-9.134-45.922h120z"/><path d="m610 32c-15.759 0-31.363-3.1039-45.922-9.1345-14.559-6.0305-27.788-14.86968-38.931-26.01272-11.143-11.14308-19.982-24.37178-26.013-38.93078-6.03-14.5591-9.134-30.1635-9.134-45.9221l120 .0001z" fill="#c5b087"/><path d="m370 632c-15.759 0-31.363-3.104-45.922-9.134-14.559-6.031-27.788-14.87-38.931-26.013s-19.982-24.372-26.013-38.931c-6.03-14.559-9.134-30.163-9.134-45.922h120z"/><path d="m850 152c0 15.759-3.104 31.363-9.134 45.922-6.031 14.559-14.87 27.788-26.013 38.931s-24.372 19.982-38.931 26.013c-14.559 6.03-30.163 9.134-45.922 9.134v-120z"/><path d="m1090 752c-15.76 0-31.36-3.104-45.92-9.134-14.56-6.031-27.79-14.87-38.93-26.013-11.146-11.143-19.985-24.372-26.016-38.931-6.03-14.559-9.134-30.163-9.134-45.922h120z"/><path d="m1090 152c-15.76 0-31.36-3.104-45.92-9.134-14.56-6.031-27.79-14.87-38.93-26.013-11.146-11.143-19.985-24.372-26.016-38.931-6.03-14.5591-9.134-30.1635-9.134-45.9221l120 .0001z" fill="#c5b087"/><path d="m490 152c15.759 0 31.363 3.104 45.922 9.134 14.559 6.031 27.788 14.87 38.931 26.013s19.982 24.372 26.013 38.931c6.03 14.559 9.134 30.163 9.134 45.922h-120z" fill="#b395b8"/><path d="m850 872c15.759 0 31.363 3.104 45.922 9.134 14.559 6.031 27.788 14.87 38.931 26.013s19.982 24.372 26.013 38.931c6.03 14.559 9.134 30.163 9.134 45.922h-120z" fill="#c5b087"/><path d="m490 512c0 15.759-3.104 31.363-9.134 45.922-6.031 14.559-14.87 27.788-26.013 38.931s-24.372 19.982-38.931 26.013c-14.559 6.03-30.163 9.134-45.922 9.134v-120z" fill="#c5b087"/><path d="m250 392c0 15.759-3.104 31.363-9.134 45.922-6.031 14.559-14.87 27.788-26.013 38.931s-24.372 19.982-38.931 26.013c-14.559 6.03-30.163 9.134-45.922 9.134v-120z"/><path d="m1090 392c0-15.759 3.1-31.363 9.13-45.922 6.04-14.559 14.87-27.788 26.02-38.931 11.14-11.143 24.37-19.982 38.93-26.013 14.56-6.03 30.16-9.134 45.92-9.134v120z"/><path d="m1210 992v-120h120m-120 120h120v-120m-120 120 120-120"/><path d="m370 932v60h120v-60m-120 0v-60h120v60m-120 0h120"/><path d="m130 212v-60h-120.00001v60m120.00001 0v60h-120l-.00001-60m120.00001 0h-120.00001"/><path d="m1030 872h60v-120h-60m0 120h-60v-120h60m0 120v-120"/><path d="m610 752v-120h120m-120 120h120v-120m-120 120 120-120"/><path d="m610 32v-120h120m-120 120h120v-120m-120 120 120-120"/><path d="m1210 752h-120v-120m120 120v-120h-120m120 120-120-120"/><path d="m1330 752v-120h120m-120 120h120v-120m-120 120 120-120"/><path d="m730 392v120h-120m120-120h-120v120m120-120-120 120"/><path d="m370-88v120h-120m120-120h-120v120m120-120-120 120"/><path d="m490 272h120v120m-120-120v120h120m-120-120 120 120"/><path d="m610 152v-120h120m-120 120h120v-120m-120 120 120-120"/><path d="m-110 752v-120h119.99999m-119.99999 120h120l-.00001-120m-119.99999 120 119.99999-120"/><path d="m970 392h-120l120 120z"/><path d="m370 752h-120l120 120z" fill="#b395b8"/><path d="m250 872h120l-120-120z"/><path d="m130 632v-120l-120 120z" fill="#b395b8"/><path d="m10 512-.00001 120 120.00001-120z"/><path d="m1330 392h120l-120-120z" fill="#c5b087"/><circle cx="910" cy="332" r="60"/><circle cx="1150" cy="932" fill="#b395b8" r="60"/><circle cx="670" cy="932" r="60"/><path d="m1330 572c0 7.879-1.55 15.681-4.57 22.961-3.01 7.28-7.43 13.894-13 19.465-5.58 5.572-12.19 9.991-19.47 13.007-7.28 3.015-15.08 4.567-22.96 4.567s-15.68-1.552-22.96-4.567c-7.28-3.016-13.89-7.435-19.47-13.007-5.57-5.571-9.99-12.185-13-19.465-3.02-7.28-4.57-15.082-4.57-22.961h60z"/><path d="m850 992c-7.879 0-15.681-1.552-22.961-4.567-7.28-3.016-13.894-7.435-19.465-13.007-5.572-5.571-9.991-12.185-13.007-19.465-3.015-7.28-4.567-15.082-4.567-22.961s1.552-15.681 4.567-22.961c3.016-7.28 7.435-13.894 13.007-19.465 5.571-5.572 12.185-9.991 19.465-13.007 7.28-3.015 15.082-4.567 22.961-4.567v60z"/><path d="m370 152c0-7.879 1.552-15.681 4.567-22.961 3.016-7.28 7.435-13.894 13.007-19.465 5.571-5.572 12.185-9.9915 19.465-13.0068s15.082-4.5672 22.961-4.5672 15.681 1.5519 22.961 4.5672 13.894 7.4348 19.465 13.0068c5.572 5.571 9.991 12.185 13.007 19.465 3.015 7.28 4.567 15.082 4.567 22.961h-60z"/><path d="m1210 272c7.88 0 15.68 1.552 22.96 4.567 7.28 3.016 13.89 7.435 19.47 13.007 5.57 5.571 9.99 12.185 13 19.465 3.02 7.28 4.57 15.082 4.57 22.961s-1.55 15.681-4.57 22.961c-3.01 7.28-7.43 13.894-13 19.465-5.58 5.572-12.19 9.991-19.47 13.007-7.28 3.015-15.08 4.567-22.96 4.567v-60z"/><path d="m1390 992c-7.88 0-15.68-1.552-22.96-4.567-7.28-3.016-13.89-7.435-19.47-13.007-5.57-5.571-9.99-12.185-13-19.465-3.02-7.28-4.57-15.082-4.57-22.961s1.55-15.681 4.57-22.961c3.01-7.28 7.43-13.894 13-19.465 5.58-5.572 12.19-9.991 19.47-13.007 7.28-3.015 15.08-4.567 22.96-4.567v60z"/><path d="m670 752c7.879 0 15.681 1.552 22.961 4.567 7.28 3.016 13.894 7.435 19.465 13.007 5.572 5.571 9.991 12.185 13.007 19.465 3.015 7.28 4.567 15.082 4.567 22.961s-1.552 15.681-4.567 22.961c-3.016 7.28-7.435 13.894-13.007 19.465-5.571 5.572-12.185 9.991-19.465 13.007-7.28 3.015-15.082 4.567-22.961 4.567v-60z"/><path d="m490 392c7.879 0 15.681 1.552 22.961 4.567 7.28 3.016 13.894 7.435 19.465 13.007 5.572 5.571 9.991 12.185 13.007 19.465 3.015 7.28 4.567 15.082 4.567 22.961s-1.552 15.681-4.567 22.961c-3.016 7.28-7.435 13.894-13.007 19.465-5.571 5.572-12.185 9.991-19.465 13.007-7.28 3.015-15.082 4.567-22.961 4.567v-60z"/><path d="m790 512c7.879 0 15.681 1.552 22.961 4.567 7.28 3.016 13.894 7.435 19.465 13.007 5.572 5.571 9.991 12.185 13.007 19.465 3.015 7.28 4.567 15.082 4.567 22.961s-1.552 15.681-4.567 22.961c-3.016 7.28-7.435 13.894-13.007 19.465-5.571 5.572-12.185 9.991-19.465 13.007-7.28 3.015-15.082 4.567-22.961 4.567v-60z" fill="#c5b087"/><path d="m1210 632c7.88 0 15.68 1.552 22.96 4.567 7.28 3.016 13.89 7.435 19.47 13.007 5.57 5.571 9.99 12.185 13 19.465 3.02 7.28 4.57 15.082 4.57 22.961s-1.55 15.681-4.57 22.961c-3.01 7.28-7.43 13.894-13 19.465-5.58 5.572-12.19 9.991-19.47 13.007-7.28 3.015-15.08 4.567-22.96 4.567v-60z"/><path d="m730 512c7.879 0 15.681 1.552 22.961 4.567 7.28 3.016 13.894 7.435 19.465 13.007 5.572 5.571 9.991 12.185 13.007 19.465 3.015 7.28 4.567 15.082 4.567 22.961s-1.552 15.681-4.567 22.961c-3.016 7.28-7.435 13.894-13.007 19.465-5.571 5.572-12.185 9.991-19.465 13.007-7.28 3.015-15.082 4.567-22.961 4.567v-60z"/><path d="m1330 752c-7.88 0-15.68-1.552-22.96-4.567-7.28-3.016-13.89-7.435-19.47-13.007-5.57-5.571-9.99-12.185-13-19.465-3.02-7.28-4.57-15.082-4.57-22.961s1.55-15.681 4.57-22.961c3.01-7.28 7.43-13.894 13-19.465 5.58-5.572 12.19-9.991 19.47-13.007 7.28-3.015 15.08-4.567 22.96-4.567v60z" fill="#c5b087"/><path d="m1330 32c-7.88 0-15.68-1.5519-22.96-4.5672s-13.89-7.4349-19.47-13.0064c-5.57-5.57151-9.99-12.18587-13-19.4654-3.02-7.2795-4.57-15.0817-4.57-22.961s1.55-15.6815 4.57-22.961c3.01-7.2795 7.43-13.8939 13-19.4654 5.58-5.5715 12.19-9.9911 19.47-13.0064s15.08-4.5672 22.96-4.5672v60z"/><path d="m190 992c-7.879 0-15.681-1.552-22.961-4.567-7.28-3.016-13.894-7.435-19.465-13.007-5.572-5.571-9.991-12.185-13.007-19.465-3.015-7.28-4.567-15.082-4.567-22.961s1.552-15.681 4.567-22.961c3.016-7.28 7.435-13.894 13.007-19.465 5.571-5.572 12.185-9.991 19.465-13.007 7.28-3.015 15.082-4.567 22.961-4.567v60z" fill="#c5b087"/><path d="m1090 272h120l-60-120z" stroke-linecap="round"/><path d="m250 152h120v120h-120z"/><path d="m730 152h120v120h-120z"/><path d="m130 392h120v120h-120z"/><path d="m250 632h120v120h-120z"/><path d="m-110 752h120v120h-120z"/><path d="m-110 392h120v120h-120z"/><path d="m490 632h120v120h-120z"/><path d="m730 512h120v120h-120z"/><path d="m370 992h120v120h-120z"/><path d="m610 992h120v120h-120z" fill="#b395b8"/><path d="m10 992h120v120h-120z"/><path d="m-110 992h120v120h-120z"/><path d="m730-88h120v120h-120z"/><path d="m1210 632h120v120h-120z"/><path d="m1210 512h120v120h-120z"/><path d="m970 152h120v120h-120z"/><path d="m1090 152h120v120h-120z"/><path d="m970 512h120v120h-120z"/><path d="m1210 32h120v120h-120z"/><path d="m850 392h120v120h-120z"/><path d="m850 272h120v120h-120z"/><path d="m1210 272h120v120h-120z"/><path d="m1090 272h120v120h-120z"/><path d="m730 872h120v120h-120z"/><path d="m850 752h120v120h-120z"/><path d="m1090 392h120v120h-120z"/><path d="m970 872h120v120h-120z"/><path d="m1090 872h120v120h-120z"/><path d="m970 992h120v120h-120z"/><path d="m1330 872h120v120h-120z"/><path d="m10 632h120v120h-120z"/><path d="m10 752h120v120h-120z"/><path d="m850 32h120v120h-120z"/><path d="m610 512h120v120h-120z"/><path d="m1210-88h120v120h-120z"/><path d="m490-88h120v120h-120z"/><path d="m1330 272h120v120h-120z"/><path d="m970 632h120v120h-120z"/><path d="m490 152h120v120h-120z"/><path d="m610 872h120v120h-120z"/><path d="m250 392h120v120h-120z"/><path d="m610 752h120v120h-120z"/><path d="m490 392h120v120h-120z"/><path d="m250 512h120v120h-120z"/><path d="m370 512h120v120h-120z"/><path d="m370 32h120v120h-120z"/><path d="m130 872h120v120h-120z"/><path d="m130 272h120v120h-120z"/><path d="m10 32h120v120h-120z" fill="#c5b087"/><path d="m-110 32h120v120h-120z"/></g></svg>