<svg width="284" height="284" viewBox="0 0 284 284" fill="none" xmlns="http://www.w3.org/2000/svg">
<circle cx="142" cy="142" r="135" fill="white" stroke="black" stroke-width="14"/>
<path d="M188.875 118.877L173.112 170.113C172.787 171.165 172.483 172.201 172.105 173.233C169.879 179.319 159.958 201.833 132.004 212.314C99.5 224.502 66.9959 208.252 67 176.065C67 143.878 99.5 147.314 115.75 135.127C132 122.939 148.25 98.5645 148.25 98.5645" stroke="#15171D" stroke-width="13"/>
<path d="M206.158 145.231C206.158 145.231 210.692 123.647 209.185 110.749C207.133 93.1662 199.029 80.2799 188.872 74.1862C178.708 68.0924 157.396 64.0299 140.122 74.1862C122.845 84.3424 115.613 97.9315 115.613 97.9315L148.95 94.8115C149.894 94.7229 150.839 94.9672 151.622 95.5022C152.405 96.0371 152.976 96.8289 153.236 97.7406L159.318 119.028C159.614 120.064 160.309 120.94 161.25 121.463C162.192 121.987 163.303 122.115 164.339 121.819L185.797 115.689C186.673 115.438 187.608 115.488 188.451 115.832C189.295 116.176 189.998 116.794 190.449 117.586L206.15 145.231H206.158Z" stroke="#15171D" stroke-width="13" stroke-linecap="round" stroke-linejoin="round"/>
<path d="M193.686 77.7549L217.686 69.7549" stroke="#15171D" stroke-width="13" stroke-linecap="round" stroke-linejoin="round"/>
</svg>
