<svg width="195" height="195" viewBox="0 0 195 195" fill="none" xmlns="http://www.w3.org/2000/svg">
<path d="M142.189 73.1221L126.427 124.358C126.102 125.41 125.797 126.446 125.419 127.478C123.193 133.564 113.273 156.078 85.3185 166.56C52.8144 178.747 20.3104 162.497 20.3145 130.31C20.3145 98.1227 52.8144 101.56 69.0644 89.3721C85.3144 77.1846 101.564 52.8096 101.564 52.8096" stroke="#15171D" stroke-width="13"/>
<path d="M159.473 99.4763C159.473 99.4763 164.007 77.8922 162.499 64.9938C160.448 47.4113 152.343 34.525 142.187 28.4313C132.022 22.3375 110.711 18.275 93.4368 28.4313C76.159 38.5875 68.9277 52.1766 68.9277 52.1766L102.265 49.0566C103.209 48.968 104.154 49.2123 104.936 49.7473C105.719 50.2822 106.29 51.0741 106.551 51.9857L112.632 73.2732C112.928 74.3091 113.623 75.1851 114.565 75.7084C115.506 76.2318 116.617 76.3598 117.653 76.0641L139.112 69.9338C139.987 69.6826 140.922 69.7331 141.766 70.0772C142.609 70.4213 143.313 71.039 143.763 71.831L159.465 99.4763H159.473Z" stroke="#15171D" stroke-width="13" stroke-linecap="round" stroke-linejoin="round"/>
<path d="M147 32L171 24" stroke="#15171D" stroke-width="13" stroke-linecap="round" stroke-linejoin="round"/>
</svg>
